<?xml version="1.0" standalone="no"?>
<!DOCTYPE svg PUBLIC "-//W3C//DTD SVG 20010904//EN"
 "http://www.w3.org/TR/2001/REC-SVG-20010904/DTD/svg10.dtd">
<svg version="1.0" xmlns="http://www.w3.org/2000/svg"
 width="224.000000pt" height="224.000000pt" viewBox="0 0 224.000000 224.000000"
 preserveAspectRatio="xMidYMid meet">
<metadata>
Created by potrace 1.14, written by Peter Selinger 2001-2017
</metadata>
<g transform="translate(0.000000,224.000000) scale(0.100000,-0.100000)"
fill="#000000" stroke="none">
<path d="M960 1502 c0 -25 16 -37 23 -18 3 8 -1 20 -9 26 -11 10 -14 9 -14 -8z"/>
<path d="M835 1446 c-4 -25 -11 -49 -16 -52 -16 -10 -9 -39 11 -52 29 -18 40
-7 33 34 -4 27 -1 38 13 49 18 13 18 15 -8 41 l-26 27 -7 -47z"/>
<path d="M1050 1430 c0 -5 7 -10 16 -10 8 0 12 5 9 10 -3 6 -10 10 -16 10 -5
0 -9 -4 -9 -10z"/>
<path d="M950 1330 c-25 -25 -26 -52 -2 -73 23 -21 56 -22 86 -2 31 21 24 51
-18 76 -39 24 -41 24 -66 -1z m20 -24 c0 -3 -4 -8 -10 -11 -5 -3 -10 -1 -10 4
0 6 5 11 10 11 6 0 10 -2 10 -4z"/>
<path d="M1212 1327 c-30 -31 -28 -61 3 -75 36 -17 59 -15 78 6 22 24 21 55
-1 75 -26 23 -55 21 -80 -6z m81 -48 c-9 -9 -12 -7 -10 9 1 14 5 18 11 12 7
-7 6 -14 -1 -21z"/>
<path d="M815 1266 c-9 -14 -13 -30 -9 -37 4 -6 8 -21 9 -33 1 -11 3 -25 4
-29 0 -5 10 -5 21 -2 11 4 20 2 20 -4 0 -6 6 -8 14 -5 19 7 37 -27 29 -56 -4
-17 -2 -21 8 -18 9 3 15 21 16 49 1 24 4 55 5 69 2 20 -4 29 -30 42 -18 9 -42
24 -52 33 -17 16 -19 15 -35 -9z"/>
<path d="M720 1115 c-7 -8 -11 -16 -9 -18 54 -31 59 -32 59 -16 0 5 -5 7 -11
3 -7 -4 -9 2 -7 16 4 28 -14 36 -32 15z"/>
<path d="M1306 1088 c-12 -26 -3 -41 25 -44 78 -10 74 -11 76 21 2 27 2 28 -7
8 -11 -27 -25 -29 -39 -5 -6 9 -11 11 -11 5 0 -22 -28 -14 -33 10 -3 19 -5 20
-11 5z"/>
<path d="M754 757 c3 -10 6 -25 6 -32 0 -14 49 -50 57 -42 2 3 -3 14 -12 24
-9 10 -25 29 -36 43 -15 18 -19 20 -15 7z"/>
</g>
</svg>
